<svg width="1119" height="246" viewBox="0 0 1119 246" fill="none" xmlns="http://www.w3.org/2000/svg">
<path d="M369.001 1.25966C371.001 3.25966 371.001 3.25966 371.501 5.88466C370.504 12.6169 365.254 17.5026 360.134 21.6815C355.556 25.0691 350.777 28.1598 346.001 31.2597C344.516 32.2497 344.516 32.2497 343.001 33.2597C343.331 33.9197 343.661 34.5797 344.001 35.2597C343.011 35.2597 342.021 35.2597 341.001 35.2597C341.331 36.2497 341.661 37.2397 342.001 38.2597C342.618 47.7277 343.051 56.8374 338.001 65.2597C337.341 65.9197 336.681 66.5797 336.001 67.2597C334.351 67.2597 332.701 67.2597 331.001 67.2597C329.021 55.3797 329.021 55.3797 327.001 43.2597C314.338 48.4697 314.338 48.4697 304.782 57.8612C304.026 60.5265 304.026 60.5265 303.661 63.1229C303.001 65.2597 303.001 65.2597 300.935 66.5526C300.297 66.786 299.659 67.0193 299.001 67.2597C297.351 64.9497 295.701 62.6397 294.001 60.2597C293.116 60.8539 292.23 61.4482 291.318 62.0604C287.935 64.3266 284.544 66.5813 281.151 68.8319C279.796 69.732 278.442 70.6341 277.09 71.539C254.329 86.7486 230.429 99.9513 206.001 112.26C204.5 113.024 202.998 113.788 201.497 114.553C198.344 116.152 195.179 117.725 192.004 119.279C190.59 119.971 189.179 120.667 187.768 121.365C172.153 129.078 156.143 135.747 140.001 142.26C138.977 142.676 137.953 143.093 136.898 143.522C54.7691 176.875 54.7691 176.875 15.5012 163.885C8.68765 160.721 4.02226 156.108 1.00116 149.26C-1.60183 139.79 1.21451 130.371 5.50116 121.822C10.4316 113.32 17.1366 105.162 25.0012 99.2597C24.561 102.34 24.0448 105.139 22.9855 108.072C20.9446 114.681 20.7396 122.458 23.6887 128.822C26.9168 134.202 30.9829 136.695 37.0012 138.26C76.5782 145.52 125.221 126.042 162.037 112.957C163.89 112.299 165.745 111.647 167.6 110.996C187.724 103.896 207.389 95.6509 227.001 87.2597C227.629 86.9911 228.257 86.7226 228.903 86.4459C244.87 79.6012 260.54 72.1997 276.115 64.5138C277.135 64.0127 277.135 64.0127 278.176 63.5014C280.025 62.5923 281.872 61.6788 283.719 60.765C286.774 59.3639 289.793 58.2519 293.001 57.2597C292.435 56.2722 291.869 55.2848 291.286 54.2675C290.545 52.9732 289.805 51.6789 289.064 50.3847C288.69 49.7337 288.317 49.0827 287.933 48.412C285.114 43.4862 285.114 43.4862 284.001 41.2597C284.581 41.3924 285.161 41.5252 285.759 41.662C286.54 41.8386 287.321 42.0152 288.126 42.1972C288.892 42.3712 289.658 42.5452 290.446 42.7245C291.29 42.9011 292.133 43.0777 293.001 43.2597C294.418 43.6367 294.418 43.6367 295.864 44.0214C299.92 44.3295 302.588 43.0022 306.064 41.1347C306.962 40.6899 306.962 40.6899 307.878 40.2362C312.033 38.0884 314.888 35.6613 318.001 32.2597C316.681 31.9297 317.696 31.34 316.336 31C316.666 30.34 314.661 29.9397 315.001 29.2597C308.654 26.2902 308.654 26.2902 302.001 24.1347C301.011 23.8459 300.021 23.5572 299.001 23.2597C298.671 22.5997 298.341 21.9397 298.001 21.2597C296.764 20.7956 296.764 20.7956 295.501 20.3222C294.264 19.7962 294.264 19.7962 293.001 19.2597C292.671 18.2697 292.341 17.2797 292.001 16.2597C294.634 12.852 297.903 11.9038 302.001 11.2597C314.665 10.099 325.882 12.5356 336.001 20.2597C336.87 19.4514 337.739 18.6432 338.634 17.8104C339.798 16.7309 340.962 15.6515 342.126 14.5722C342.981 13.7765 342.981 13.7765 343.853 12.9647C359.191 -1.24089 359.191 -1.24089 369.001 1.25966Z" fill="#043D8F"/>
<path d="M283 86.2578C283.66 86.5878 284.32 86.9178 285 87.2578C276.806 94.4077 268.504 101.295 259.833 107.859C257.035 109.994 254.266 112.164 251.493 114.332C248.401 116.748 245.299 119.153 242.196 121.556C240.819 122.623 239.443 123.692 238.069 124.765C208.567 147.739 176.148 167.081 143 184.258C142.209 184.67 141.419 185.082 140.604 185.506C136.108 187.84 131.57 190.071 127 192.258C126.162 192.664 125.324 193.071 124.461 193.489C102.791 203.95 80.352 212.395 57 218.258C55.953 218.524 55.953 218.524 54.8848 218.796C44.2877 221.478 44.2877 221.478 41 220.258C31.4548 211.048 24.1639 194.997 21 182.258C21 181.268 21 180.278 21 179.258C21.6915 179.327 22.383 179.396 23.0955 179.468C54.0569 182.335 80.513 178.708 110 169.258C110.861 168.985 111.723 168.712 112.61 168.431C150.092 156.411 185.799 138.649 220.75 120.758C221.956 120.141 221.956 120.141 223.186 119.512C233.315 114.32 243.307 108.927 253.194 103.287C255.93 101.728 258.674 100.185 261.418 98.6406C263.341 97.5548 265.264 96.4689 267.188 95.3828C268.17 94.8285 269.153 94.2742 270.166 93.7031C271.115 93.1669 272.065 92.6306 273.043 92.0781C273.879 91.6065 274.714 91.1349 275.575 90.6489C277.308 89.655 279.008 88.6048 280.685 87.519C281.449 87.1028 282.213 86.6866 283 86.2578Z" fill="#0F8FDE"/>
<path d="M98.127 22.6299C136.154 -0.0287132 177.934 4.10362 218.073 17.3623C220.709 18.1654 220.336 18 223.336 19.5C223.336 19.5 223.375 19.5263 226.002 21.2549L229.502 22.3799C236.746 24.787 243.865 27.549 251.002 30.2549V34.2549C241.72 31.638 232.726 28.3002 223.697 24.9268C212.717 20.9208 201.778 17.6458 190.002 18.2549L191.436 20.4736C197.833 30.9485 201.95 42.0378 206.035 53.582C206.913 56.0106 207.861 58.3989 208.826 60.7939C210.002 64.2545 210.002 64.255 209.002 67.2549L207.568 64.3525C205.786 60.7564 203.986 57.1689 202.178 53.5859C201.405 52.0551 200.635 50.5227 199.868 48.9893C190.668 30.0811 190.668 30.081 174.275 17.7979C165.331 15.6616 155.91 16.5234 148.002 21.2549C140.777 26.3216 136.275 32.6321 132.002 40.2549L130.518 42.7822C124.039 54.6423 118.997 68.8999 117.002 82.2549C133.116 83.2153 149.175 83.3769 165.314 83.3174C167.724 83.3124 170.134 83.3078 172.543 83.3037C178.363 83.2929 184.182 83.2762 190.002 83.2549C186.781 84.9448 184.067 85.7288 180.459 86.29L177.203 86.8037L173.814 87.3174L170.484 87.8428C167.326 88.3343 164.166 88.8009 161.002 89.2549C160.258 89.3667 159.513 89.4785 158.746 89.5938C151.995 90.491 145.206 90.4055 138.408 90.3848C136.309 90.3794 134.209 90.3852 132.109 90.3916C130.757 90.3909 129.405 90.3897 128.053 90.3877C126.843 90.3866 125.632 90.385 124.386 90.3838C121.17 90.2608 118.158 89.8613 115.002 89.2549C114.877 90.0016 114.751 90.7482 114.622 91.5176C114.043 94.8926 113.429 98.2611 112.814 101.63L112.219 105.192L111.584 108.591C111.401 109.628 111.217 110.664 111.028 111.732C110.002 114.254 110.002 114.255 107.716 115.608C105.028 116.248 102.753 116.412 100.002 116.255C100.312 112.921 100.626 109.588 100.939 106.255L101.203 103.423C101.713 98.0193 102.298 92.6366 103.002 87.2549L99.1621 86.2666C97.4629 85.8254 95.7636 85.3839 94.0645 84.9424L91.5469 84.2959C86.5845 83.0022 81.739 81.5459 76.9102 79.8164C74.8541 79.1134 74.8537 79.1137 72.002 79.2549C65.9621 94.5581 61.0677 109.736 60.002 126.255C52.6497 128.928 44.7524 129.59 37.3145 126.942C35.0021 125.255 35.0018 125.254 34.002 122.255C33.3369 112.163 34.3583 103.037 37.002 93.2549L37.7754 90.2744C41.6033 77.2631 49.0507 65.3454 58.002 55.2549L60.5254 52.333C67.6049 44.2707 75.2944 36.9226 84.3574 31.0986L87.002 29.2549C87.336 29.0005 87.3359 29 87.8359 28.5L88.3359 28C91.3359 26.0001 95.0633 24.5419 98.127 22.6299ZM131 23.2578C121.205 23.2578 121.205 23.2579 101.938 37.9453C92.5379 45.7783 77.5461 59.5382 76 72.2578C78.3081 73.4119 78.3082 73.4119 84.4902 75.0742L87.0625 75.7578C93.3911 77.4951 99.4562 78.6779 106 79.2578C110.981 63.2599 116.45 46.9427 125.438 32.6953C127.473 29.5993 129.427 26.6163 131 23.2578Z" fill="#043D8F"/>
<path d="M308 85.2578C326.026 107.096 327.699 143.242 325.81 169.95C323.403 194.773 312.909 217.747 298.201 237.607C297.13 239.08 296.144 240.613 295.172 242.152C290.714 246.474 282.369 245.402 276.399 245.385C275.57 245.386 274.741 245.388 273.887 245.39C271.128 245.394 268.369 245.391 265.61 245.388C263.623 245.389 261.636 245.39 259.649 245.393C254.26 245.397 248.87 245.396 243.48 245.393C237.813 245.39 232.146 245.392 226.479 245.394C216.942 245.395 207.404 245.393 197.867 245.389C186.908 245.383 175.948 245.384 164.989 245.39C155.538 245.394 146.087 245.395 136.636 245.393C131.011 245.391 125.386 245.391 119.761 245.395C61.5136 245.424 61.5134 245.424 42 243.258V238.258H45C84.3382 233.168 121.4 216.805 155 196.258C155.905 195.708 156.811 195.158 157.743 194.592C178.347 182.033 198.308 168.541 217.793 154.312C222.094 151.175 226.451 148.122 230.812 145.07C236.986 140.738 243.007 136.255 248.957 131.621C251.947 129.299 254.966 127.022 258 124.758C267.918 117.339 277.695 109.742 287.422 102.074C289.906 100.116 292.396 98.1669 294.891 96.2227C295.844 95.4782 295.844 95.4781 296.816 94.7188C298.033 93.7688 299.251 92.8198 300.471 91.873C303.129 89.7943 305.697 87.7312 308 85.2578ZM232 183.257C229.668 182.091 229.667 182.091 222.652 183.604L219.75 184.257C212.916 185.594 208.495 186.755 204.263 192.491C194.883 203.184 194.882 203.184 184.125 212.632C180.008 216.439 175.935 220.262 172 224.257C177.573 224.411 183.132 224.49 188.706 224.355C197.819 223.966 202.516 220.594 208.645 213.972L211 211.257C216.691 204.699 216.692 204.698 232 183.257ZM273 120.258C269.796 123.534 266.572 126.738 263.18 129.82C254.813 137.347 247.372 145.282 240.312 154.07C238.077 156.921 235.982 159.272 233.191 161.594C230.008 164.156 227.271 167.035 224.496 170.029L222.625 172.07C220.413 174.463 218.202 176.856 216 179.258C218.262 180.389 218.262 180.389 225.139 178.359L227.938 177.508L230.725 176.703L233.402 175.898C239.154 174.179 241.137 171.223 244.438 166.271C244.885 165.592 245.32 164.933 245.754 164.273C247.197 162.103 248.639 159.931 250.076 157.757C251.53 155.556 252.988 153.358 254.447 151.16C255.404 149.719 256.36 148.278 257.316 146.836C259.689 143.243 262.055 139.646 264.477 136.086C264.976 135.356 265.461 134.648 265.945 133.939C266.868 132.582 267.791 131.224 268.715 129.867C270.961 126.63 273 124.341 273 120.258Z" fill="#45A433"/>
<path d="M270 96.2578C270 98.2578 270 98.2578 268.625 99.7578C268.089 100.253 267.553 100.748 267 101.258C266.34 101.918 265.68 102.578 265 103.258C263.68 103.258 262.36 103.258 261 103.258C261 102.268 261 101.278 261 100.258C267.75 96.2578 267.75 96.2578 270 96.2578Z" fill="#1391D8"/>
<path d="M429.26 36.46H460.587V83.1255L495.438 36.46H511.101L485.411 71.0391L519.068 117.054H483.785L465.791 91.7432L460.587 98.8975V117H429.26V36.46ZM551.913 56.7847L542.591 36.46H575.598L615.055 117.054H579.663L573.701 104.155H541.94L536.033 117.054H522.32L551.913 56.7847ZM568.01 91.7432L557.821 69.6299L547.686 91.7432H568.01ZM626.112 36.46H645.732L696.842 79.3857L696.896 36.46H708.82V117H689.2L638.036 74.2368V117H626.112V36.46ZM729.416 36.46H762.531C771.854 36.46 779.929 37.3452 786.758 39.1157C793.587 40.8501 799.242 43.4155 803.723 46.812C808.203 50.2085 811.527 54.3818 813.695 59.332C815.863 64.2822 816.947 69.9551 816.947 76.3506C816.947 82.0596 815.863 87.3892 813.695 92.3394C811.527 97.2534 808.203 101.553 803.723 105.239C799.242 108.888 793.587 111.761 786.758 113.856C779.929 115.952 771.854 117 762.531 117H729.416V36.46ZM760.743 105.185C764.356 105.185 767.608 104.625 770.499 103.504C773.389 102.384 775.828 100.65 777.815 98.3013C779.839 95.9526 781.375 92.9717 782.422 89.3584C783.506 85.709 784.048 81.355 784.048 76.2964C784.048 71.2739 783.506 66.9922 782.422 63.4512C781.338 59.9102 779.785 57.0195 777.761 54.7793C775.738 52.5029 773.281 50.8589 770.39 49.8472C767.536 48.7993 764.338 48.2754 760.797 48.2754L760.743 105.185ZM855.104 56.7847L845.781 36.46H878.789L918.246 117.054H882.854L876.892 104.155H845.131L839.223 117.054H825.511L855.104 56.7847ZM871.201 91.7432L861.011 69.6299L850.876 91.7432H871.201ZM929.302 36.46H975.751C981.749 36.46 986.988 37.0923 991.469 38.3569C995.985 39.6216 999.743 41.3921 1002.74 43.6685C1005.78 45.9448 1008.05 48.6729 1009.57 51.8525C1011.09 55.0322 1011.85 58.5371 1011.85 62.3672C1011.85 67.1006 1010.73 71.3101 1008.49 74.9956C1006.25 78.645 1002.92 81.5537 998.515 83.7217L1015.42 117.054H980.033L967.242 87.7866H960.629V117H929.302V36.46ZM962.526 77.9766C965.092 77.9766 967.386 77.6152 969.41 76.8926C971.433 76.1699 973.149 75.1582 974.559 73.8574C975.968 72.5205 977.052 70.9487 977.811 69.1421C978.569 67.2993 978.949 65.2939 978.949 63.126C978.949 60.958 978.569 58.9707 977.811 57.1641C977.052 55.3213 975.968 53.7495 974.559 52.4487C973.149 51.1118 971.433 50.082 969.41 49.3594C967.386 48.6367 965.092 48.2754 962.526 48.2754H960.684L960.629 77.9766H962.526ZM1030.44 36.46H1069.19C1076.34 36.4238 1082.51 37.0562 1087.67 38.3569C1092.88 39.6216 1097.16 41.4463 1100.52 43.8311C1103.88 46.2158 1106.35 49.0884 1107.94 52.4487C1109.57 55.7729 1110.38 59.4766 1110.38 63.5596C1110.38 67.1367 1109.62 70.5693 1108.11 73.8574C1106.62 77.1094 1104.31 79.9819 1101.17 82.4751C1098.06 84.9683 1094.09 86.9556 1089.24 88.437C1084.44 89.9185 1078.71 90.6592 1072.06 90.6592H1061.77V117H1030.44V36.46ZM1061.77 78.8438C1064.26 78.8076 1066.48 78.4282 1068.43 77.7056C1070.38 76.9468 1072.03 75.917 1073.36 74.6162C1074.7 73.2793 1075.71 71.6895 1076.4 69.8467C1077.12 67.9678 1077.48 65.8721 1077.48 63.5596C1077.48 61.2832 1077.12 59.2236 1076.4 57.3809C1075.68 55.5381 1074.63 53.9663 1073.26 52.6655C1071.92 51.3286 1070.27 50.2808 1068.32 49.522C1066.41 48.7632 1064.22 48.3477 1061.77 48.2754V78.8438Z" fill="#043D8F"/>
<path d="M437 162.575H420.8V157.4H460.55V162.575H444.125V212H437V162.575ZM486.59 212.825C482.54 212.825 478.99 212.075 475.94 210.575C472.94 209.075 470.44 207.025 468.44 204.425C466.44 201.775 464.94 198.775 463.94 195.425C462.94 192.075 462.44 188.525 462.44 184.775C462.44 181.025 462.915 177.475 463.865 174.125C464.865 170.725 466.365 167.725 468.365 165.125C470.365 162.475 472.89 160.4 475.94 158.9C478.99 157.4 482.565 156.65 486.665 156.65C490.765 156.65 494.315 157.4 497.315 158.9C500.365 160.4 502.89 162.475 504.89 165.125C506.89 167.725 508.365 170.725 509.315 174.125C510.315 177.475 510.815 181.025 510.815 184.775C510.815 188.525 510.315 192.1 509.315 195.5C508.315 198.85 506.815 201.825 504.815 204.425C502.815 207.025 500.29 209.075 497.24 210.575C494.24 212.075 490.69 212.825 486.59 212.825ZM486.665 207.725C489.865 207.725 492.54 207.05 494.69 205.7C496.84 204.35 498.565 202.55 499.865 200.3C501.165 198.05 502.09 195.575 502.64 192.875C503.24 190.175 503.54 187.475 503.54 184.775C503.54 182.075 503.24 179.375 502.64 176.675C502.09 173.975 501.165 171.525 499.865 169.325C498.565 167.075 496.815 165.275 494.615 163.925C492.465 162.575 489.815 161.9 486.665 161.9C483.515 161.9 480.84 162.575 478.64 163.925C476.49 165.275 474.765 167.075 473.465 169.325C472.215 171.575 471.29 174.05 470.69 176.75C470.14 179.45 469.865 182.15 469.865 184.85C469.865 187.55 470.14 190.25 470.69 192.95C471.29 195.6 472.215 198.05 473.465 200.3C474.765 202.55 476.49 204.35 478.64 205.7C480.84 207.05 483.515 207.725 486.665 207.725ZM527.863 157.4V193.7C527.863 197.95 528.913 201.35 531.013 203.9C533.113 206.45 536.413 207.725 540.913 207.725C544.013 207.725 546.613 207.1 548.713 205.85C550.813 204.55 552.388 202.775 553.438 200.525C554.488 198.225 555.013 195.6 555.013 192.65V157.4H560.788V192.65C560.788 196.85 559.988 200.475 558.388 203.525C556.838 206.525 554.563 208.85 551.563 210.5C548.563 212.1 544.913 212.9 540.613 212.9C534.363 212.9 529.488 211.275 525.988 208.025C522.488 204.775 520.738 200 520.738 193.7V162.35L519.613 157.4H527.863ZM572.64 157.4H588.915C592.365 157.4 595.49 157.85 598.29 158.75C601.09 159.6 603.29 161.125 604.89 163.325C606.54 165.525 607.365 168.575 607.365 172.475C607.365 174.475 606.89 176.4 605.94 178.25C604.99 180.1 603.715 181.725 602.115 183.125C600.565 184.475 598.84 185.45 596.94 186.05L612.24 212H604.14L590.04 187.475H580.665V212H573.69V162.35L572.64 157.4ZM580.665 162.575V182.375H586.665C589.165 182.375 591.415 182.1 593.415 181.55C595.465 180.95 597.09 179.9 598.29 178.4C599.49 176.9 600.09 174.775 600.09 172.025C600.09 169.875 599.565 168.125 598.515 166.775C597.465 165.375 596.09 164.325 594.39 163.625C592.69 162.925 590.865 162.575 588.915 162.575H580.665ZM632.627 156.65C635.127 156.65 637.552 157 639.902 157.7C642.302 158.4 644.577 159.4 646.727 160.7L643.277 165.725C641.727 164.575 640.027 163.675 638.177 163.025C636.377 162.325 634.502 161.975 632.552 161.975C629.902 161.975 627.652 162.65 625.802 164C623.952 165.3 623.027 167.4 623.027 170.3C623.027 171.9 623.452 173.275 624.302 174.425C625.202 175.525 626.377 176.5 627.827 177.35C629.277 178.2 630.852 179.025 632.552 179.825C634.302 180.625 636.077 181.5 637.877 182.45C639.727 183.4 641.402 184.525 642.902 185.825C644.452 187.075 645.677 188.625 646.577 190.475C647.527 192.275 648.002 194.5 648.002 197.15C648.002 200.75 647.127 203.725 645.377 206.075C643.627 208.375 641.327 210.1 638.477 211.25C635.627 212.35 632.552 212.9 629.252 212.9C626.552 212.9 623.927 212.55 621.377 211.85C618.877 211.1 616.427 210.1 614.027 208.85L616.727 202.7C618.377 204.1 620.377 205.25 622.727 206.15C625.077 207.05 627.327 207.5 629.477 207.5C631.127 207.5 632.802 207.2 634.502 206.6C636.202 205.95 637.627 204.925 638.777 203.525C639.927 202.125 640.502 200.325 640.502 198.125C640.502 195.925 639.977 194.125 638.927 192.725C637.877 191.275 636.502 190.075 634.802 189.125C633.102 188.125 631.302 187.175 629.402 186.275C627.752 185.475 626.102 184.65 624.452 183.8C622.802 182.95 621.302 181.95 619.952 180.8C618.602 179.65 617.527 178.275 616.727 176.675C615.927 175.075 615.527 173.15 615.527 170.9C615.527 167.75 616.352 165.125 618.002 163.025C619.702 160.925 621.852 159.35 624.452 158.3C627.102 157.2 629.827 156.65 632.627 156.65ZM712.209 187.475C709.859 195.875 706.459 202.175 702.009 206.375C697.559 210.575 692.059 212.675 685.509 212.675C682.009 212.675 679.084 212 676.734 210.65C674.384 209.25 672.609 207.45 671.409 205.25C670.259 203 669.684 200.625 669.684 198.125C669.684 194.575 670.784 191.275 672.984 188.225C675.234 185.125 678.709 182.65 683.409 180.8L685.359 185.375C682.609 186.275 680.484 187.7 678.984 189.65C677.484 191.6 676.734 194.05 676.734 197C676.734 198.8 677.109 200.55 677.859 202.25C678.609 203.9 679.709 205.25 681.159 206.3C682.659 207.35 684.534 207.875 686.784 207.875C689.634 207.875 692.384 207.1 695.034 205.55C697.684 203.95 700.009 201.575 702.009 198.425C704.059 195.225 705.484 191.225 706.284 186.425L712.209 187.475ZM718.284 212.15C717.384 212.3 716.509 212.4 715.659 212.45C714.809 212.55 713.959 212.6 713.109 212.6C709.659 212.6 706.509 212.175 703.659 211.325C700.809 210.475 698.234 209.225 695.934 207.575C692.634 205.125 689.609 202.05 686.859 198.35C684.159 194.65 682.009 190.6 680.409 186.2C678.809 181.75 678.009 177.3 678.009 172.85C678.009 170.6 678.259 168.5 678.759 166.55C679.259 164.6 680.009 162.9 681.009 161.45C682.059 159.95 683.359 158.775 684.909 157.925C686.509 157.075 688.384 156.65 690.534 156.65C693.634 156.65 696.059 157.55 697.809 159.35C699.559 161.1 700.434 163.475 700.434 166.475C700.434 168.625 699.909 170.875 698.859 173.225C697.859 175.525 696.259 177.725 694.059 179.825C691.859 181.925 689.034 183.725 685.584 185.225L684.009 180.725C686.359 179.775 688.234 178.525 689.634 176.975C691.084 175.375 692.134 173.7 692.784 171.95C693.434 170.15 693.759 168.475 693.759 166.925C693.759 165.175 693.459 163.825 692.859 162.875C692.309 161.925 691.384 161.45 690.084 161.45C688.384 161.45 687.084 162.325 686.184 164.075C685.334 165.775 684.909 168.325 684.909 171.725C684.909 176.025 685.634 180.225 687.084 184.325C688.584 188.375 690.559 192.05 693.009 195.35C695.509 198.65 698.234 201.3 701.184 203.3C703.134 204.6 705.134 205.575 707.184 206.225C709.234 206.875 711.309 207.2 713.409 207.2C714.109 207.2 714.784 207.175 715.434 207.125C716.134 207.025 716.809 206.925 717.459 206.825L718.284 212.15ZM752.454 162.575H736.254V157.4H776.004V162.575H759.579V212H752.454V162.575ZM783.138 157.4H799.413C802.863 157.4 805.988 157.85 808.788 158.75C811.588 159.6 813.788 161.125 815.388 163.325C817.038 165.525 817.863 168.575 817.863 172.475C817.863 174.475 817.388 176.4 816.438 178.25C815.488 180.1 814.213 181.725 812.613 183.125C811.063 184.475 809.338 185.45 807.438 186.05L822.738 212H814.638L800.538 187.475H791.163V212H784.188V162.35L783.138 157.4ZM791.163 162.575V182.375H797.163C799.663 182.375 801.913 182.1 803.913 181.55C805.963 180.95 807.588 179.9 808.788 178.4C809.988 176.9 810.588 174.775 810.588 172.025C810.588 169.875 810.063 168.125 809.013 166.775C807.963 165.375 806.588 164.325 804.888 163.625C803.188 162.925 801.363 162.575 799.413 162.575H791.163ZM847.81 157.4L866.71 212H858.985L852.685 193.25H834.685L828.31 212H822.01L840.985 157.4H847.81ZM843.76 166.55L836.41 188.15H850.96L843.76 166.55ZM870.676 157.4L882.526 193.025C882.926 194.275 883.301 195.5 883.651 196.7C884.001 197.85 884.376 199.125 884.776 200.525C885.176 199.225 885.526 198.05 885.826 197C886.126 195.9 886.476 194.775 886.876 193.625L899.326 157.325H905.326L886.426 212.225H882.076L863.251 157.4H870.676ZM912.266 157.4H945.041V162.575H920.291V181.4H939.491V186.5H920.291V206.825H945.041V212H913.316V162.35L912.266 157.4ZM953.428 157.4H961.453V206.825H984.403V212H954.478V162.35L953.428 157.4ZM1007.55 156.65C1010.05 156.65 1012.48 157 1014.83 157.7C1017.23 158.4 1019.5 159.4 1021.65 160.7L1018.2 165.725C1016.65 164.575 1014.95 163.675 1013.1 163.025C1011.3 162.325 1009.43 161.975 1007.48 161.975C1004.83 161.975 1002.58 162.65 1000.73 164C998.879 165.3 997.954 167.4 997.954 170.3C997.954 171.9 998.379 173.275 999.229 174.425C1000.13 175.525 1001.3 176.5 1002.75 177.35C1004.2 178.2 1005.78 179.025 1007.48 179.825C1009.23 180.625 1011 181.5 1012.8 182.45C1014.65 183.4 1016.33 184.525 1017.83 185.825C1019.38 187.075 1020.6 188.625 1021.5 190.475C1022.45 192.275 1022.93 194.5 1022.93 197.15C1022.93 200.75 1022.05 203.725 1020.3 206.075C1018.55 208.375 1016.25 210.1 1013.4 211.25C1010.55 212.35 1007.48 212.9 1004.18 212.9C1001.48 212.9 998.854 212.55 996.304 211.85C993.804 211.1 991.354 210.1 988.954 208.85L991.654 202.7C993.304 204.1 995.304 205.25 997.654 206.15C1000 207.05 1002.25 207.5 1004.4 207.5C1006.05 207.5 1007.73 207.2 1009.43 206.6C1011.13 205.95 1012.55 204.925 1013.7 203.525C1014.85 202.125 1015.43 200.325 1015.43 198.125C1015.43 195.925 1014.9 194.125 1013.85 192.725C1012.8 191.275 1011.43 190.075 1009.73 189.125C1008.03 188.125 1006.23 187.175 1004.33 186.275C1002.68 185.475 1001.03 184.65 999.379 183.8C997.729 182.95 996.229 181.95 994.879 180.8C993.529 179.65 992.454 178.275 991.654 176.675C990.854 175.075 990.454 173.15 990.454 170.9C990.454 167.75 991.279 165.125 992.929 163.025C994.629 160.925 996.779 159.35 999.379 158.3C1002.03 157.2 1004.75 156.65 1007.55 156.65Z" fill="#45A433"/>
</svg>
